<?xml version="1.0" encoding="UTF-8" standalone="no"?>
<svg
   xmlns:dc="http://purl.org/dc/elements/1.1/"
   xmlns:cc="http://creativecommons.org/ns#"
   xmlns:rdf="http://www.w3.org/1999/02/22-rdf-syntax-ns#"
   xmlns:svg="http://www.w3.org/2000/svg"
   xmlns="http://www.w3.org/2000/svg"
   xmlns:sodipodi="http://sodipodi.sourceforge.net/DTD/sodipodi-0.dtd"
   xmlns:inkscape="http://www.inkscape.org/namespaces/inkscape"
   width="127.99994mm"
   height="127.99993mm"
   viewBox="0 0 127.99994 127.99993"
   version="1.1"
   id="svg8"
   inkscape:version="1.0.1 (3bc2e813f5, 2020-09-07)"
   sodipodi:docname="circle.svg"
   inkscape:export-filename="E:\Code\Projects\FlightSim\Assets\Textures\HUD\Sources\square.png"
   inkscape:export-xdpi="48"
   inkscape:export-ydpi="48">
  <defs
     id="defs2" />
  <sodipodi:namedview
     id="base"
     pagecolor="#ffffff"
     bordercolor="#666666"
     borderopacity="1.0"
     inkscape:pageopacity="0.0"
     inkscape:pageshadow="2"
     inkscape:zoom="1.4"
     inkscape:cx="324.29195"
     inkscape:cy="211.13845"
     inkscape:document-units="mm"
     inkscape:current-layer="layer1"
     showgrid="false"
     inkscape:window-width="1920"
     inkscape:window-height="1017"
     inkscape:window-x="-8"
     inkscape:window-y="-8"
     inkscape:window-maximized="1"
     inkscape:pagecheckerboard="true"
     inkscape:document-rotation="0" />
  <metadata
     id="metadata5">
    <rdf:RDF>
      <cc:Work
         rdf:about="">
        <dc:format>image/svg+xml</dc:format>
        <dc:type
           rdf:resource="http://purl.org/dc/dcmitype/StillImage" />
        <dc:title></dc:title>
      </cc:Work>
    </rdf:RDF>
  </metadata>
  <g
     inkscape:label="Layer 1"
     inkscape:groupmode="layer"
     id="layer1"
     transform="translate(0,-169.00002)">
    <path
       id="path831"
       style="fill:#ffffff;stroke:none;stroke-width:3;stroke-opacity:0"
       d="M 241.89062 15.117188 A 226.77165 226.77165 0 0 0 15.117188 241.89062 A 226.77165 226.77165 0 0 0 241.89062 468.66211 A 226.77165 226.77165 0 0 0 468.66211 241.89062 A 226.77165 226.77165 0 0 0 241.89062 15.117188 z M 241.89062 45.353516 A 196.53543 196.53543 0 0 1 438.42578 241.89062 A 196.53543 196.53543 0 0 1 241.89062 438.42578 A 196.53543 196.53543 0 0 1 45.353516 241.89062 A 196.53543 196.53543 0 0 1 241.89062 45.353516 z "
       transform="matrix(0.26458333,0,0,0.26458333,0,169.00002)" />
  </g>
</svg>
